<svg xmlns="http://www.w3.org/2000/svg" xmlns:xlink="http://www.w3.org/1999/xlink" width="500" zoomAndPan="magnify" viewBox="0 0 375 374.999991" height="500" preserveAspectRatio="xMidYMid meet" version="1.0"><defs><g/></defs><g fill="#ffffff" fill-opacity="1"><g transform="translate(115.023638, 223.299485)"><g><path d="M 66.472656 -21.019531 L 8.097656 -21.019531 L 0.285156 -1.847656 C -0.140625 -0.710938 0.425781 0 1.847656 0 L 66.332031 0 C 67.324219 0 68.035156 -0.710938 68.035156 -1.277344 L 68.035156 -19.742188 C 68.035156 -20.453125 67.464844 -21.019531 66.472656 -21.019531 Z M 1.5625 -92.464844 L 36.644531 -92.464844 L 16.761719 -42.753906 L 40.054688 -42.753906 L 67.75 -111.78125 C 68.035156 -112.917969 67.464844 -113.628906 66.1875 -113.628906 L 1.5625 -113.628906 C 0.710938 -113.628906 0 -112.917969 0 -112.351562 L 0 -93.886719 C 0 -93.175781 0.710938 -92.464844 1.5625 -92.464844 Z M 1.5625 -92.464844 "/></g></g></g><g fill="#ffffff" fill-opacity="1"><g transform="translate(189.545852, 273.282616)"><g><path d="M 55.394531 -79.824219 C 55.394531 -67.324219 38.632812 -67.324219 38.632812 -67.324219 L 21.589844 -67.324219 L 21.589844 -93.316406 L 38.632812 -93.316406 C 38.632812 -93.316406 55.394531 -93.460938 55.394531 -79.824219 Z M 77.125 -81.101562 C 77.125 -114.480469 38.632812 -113.628906 38.632812 -113.628906 L 1.5625 -113.628906 C 0.710938 -113.628906 0 -112.917969 0 -112.351562 L 0 -46.160156 L 38.632812 -46.160156 C 38.632812 -46.160156 56.957031 -47.011719 56.957031 -33.664062 C 56.957031 -22.726562 45.734375 -20.738281 38.632812 -20.738281 L 21.730469 -20.738281 L 21.730469 0 L 38.632812 0 C 46.304688 0 78.6875 -1.421875 78.6875 -33.09375 C 78.6875 -33.09375 79.398438 -50.707031 61.359375 -56.8125 C 70.023438 -60.363281 77.125 -67.894531 77.125 -81.101562 Z M 77.125 -81.101562 "/></g></g></g></svg>